PathFileType	4	(X/Y/Z)	Patient4_TMGait_0pt4_03_right_15.trc.trc
DataRate	CameraRate	NumFrames	NumMarkers	Units	OrigDataRate	OrigDataStartFrame	OrigNumFrames
72.916666666667	72.916666666667	4	33	mm	72.916666666667	18	       141
Frame#	Time	Sacral			L.Shoulder			Chest			R.Shoulder			Neck			R.ASIS			L.ASIS			R.Thigh.Superior			R.Thigh.Lateral			R.Thigh.Inferior			R.Patella			L.Thigh.Superior			L.Thigh.Lateral			L.Thigh.Inferior			L.Patella			L.Shank.Superior			L.Shank.Lateral			L.Shank.Inferior			R.Shank.Superior			R.Shank.Lateral			R.Shank.Inferior			R.Heel			R.Midfoot.Superior			R.Midfoot.Lateral			R.Toe			L.Heel			L.Midfoot.Lateral			L.Midfoot.Superior			L.Toe			L.Elbow			L.Wrist			R.Elbow			R.Wrist			
		X1	Y1	Z1	X2	Y2	Z2	X3	Y3	Z3	X4	Y4	Z4	X5	Y5	Z5	X6	Y6	Z6	X7	Y7	Z7	X8	Y8	Z8	X9	Y9	Z9	X10	Y10	Z10	X11	Y11	Z11	X12	Y12	Z12	X13	Y13	Z13	X14	Y14	Z14	X15	Y15	Z15	X16	Y16	Z16	X17	Y17	Z17	X18	Y18	Z18	X19	Y19	Z19	X20	Y20	Z20	X21	Y21	Z21	X22	Y22	Z22	X23	Y23	Z23	X24	Y24	Z24	X25	Y25	Z25	X26	Y26	Z26	X27	Y27	Z27	X28	Y28	Z28	X29	Y29	Z29	X30	Y30	Z30	X31	Y31	Z31	X32	Y32	Z32	X33	Y33	Z33	

18	18.973142857143	827.153511424367	1012.236770618845	416.994648416662	1057.294484649180	1430.304654922015	248.386738457829	1129.164797603961	1362.684311212604	425.079930254971	1021.585791401555	1442.374961616294	582.098345911726	1017.446755543874	1495.953715442131	401.056816727339	1037.752636396139	950.757487384507	568.410832292975	1063.661918989149	960.005460099428	293.195518306761	1105.534361967728	768.085871522581	548.982736753471	1050.656837975069	651.398284203934	619.683778640007	1139.410550381160	606.749862995772	543.923296952311	1167.792435862617	525.484471922694	563.204929365294	1075.563752546840	735.154070706311	331.959256232207	978.510010924572	632.806164890519	253.938267084477	1039.027921064539	544.637327831278	326.971603387584	1027.331747288339	475.975278986552	333.991289374491	994.681509861052	407.776748378746	321.774537082546	897.961402853502	304.156005787093	263.591669634210	928.361522347632	187.558179829658	335.866137303997	1150.113975281589	438.915434258582	574.318939959169	1094.223509393853	327.062487821044	639.416255041100	1163.146632894267	238.962409950087	590.203621007087	1069.233309983177	50.756696790140	565.250187463247	1231.245340195993	125.278835360026	603.237864937986	1154.979594446785	48.017163828570	637.696617817430	1357.535272977133	89.828302255208	627.660478558940	786.501828151432	39.208503788454	368.110716590308	862.226462514616	35.494579380845	289.553343901350	945.486911605639	95.418647809844	320.773180345662	1074.551863551794	40.551905995514	293.457084673663	1055.212180875938	1091.282740036964	105.061830998967	1273.141664833031	974.709607341568	182.483573306851	936.566808670353	1102.007241186010	696.736655186932	992.320197671536	848.583176723197	728.136643041693	
19	18.986857142857	827.984248198040	1011.149434650156	418.649302990960	1057.276636167911	1429.739914839670	250.799369300948	1129.313759170425	1361.973121081998	427.354339959435	1021.627514671954	1441.245132184812	584.507997599262	1017.333206645923	1495.101906007255	403.542535673414	1038.429445523203	949.454941839480	570.153060323005	1064.396526430474	958.921759958592	294.826299139154	1103.717450208721	764.561402534593	551.242576760523	1046.139365692562	648.331481060288	620.469261126017	1134.848822015019	603.193756912287	544.979458005799	1162.225228659652	523.051181202997	563.060278037617	1075.184682628969	733.900616990140	333.285670668071	977.516956292822	632.053927360864	254.996145764754	1037.422974204278	543.421827164423	327.906091526207	1025.276061233285	474.696514356899	334.751543477324	991.971900270811	406.740249534703	322.461312671816	894.288320075062	304.050578119816	264.068740060184	923.655552141879	187.045142094743	336.063844065451	1146.193422809085	436.489171578872	574.237955218173	1091.760606984471	323.367033140786	638.377633142724	1162.775888512806	236.663899521096	589.248405561371	1072.643423155318	46.776595271316	562.821534719393	1233.135959047633	124.207269542078	602.521448748763	1157.678280490599	45.843439019007	636.155250159187	1359.779935667009	90.716983288456	628.051872035400	780.980369958639	39.165713110501	368.114030333148	856.695374816832	35.465190161436	289.573222008737	939.948783648953	95.366032183116	320.813345481453	1069.006535548371	40.460980037283	293.433697388857	1057.037615383827	1090.232861120132	108.533949078284	1275.402742014445	976.180059806758	188.113130938216	938.787395317423	1099.977320183052	698.460619477198	998.246318495847	847.097060836216	728.078865685854	
20	19.000571428571	829.036896234102	1009.897318154413	420.651004530621	1056.971888712440	1429.201962745045	253.461546250436	1129.410563692171	1361.332252611892	429.803540430051	1021.671590985007	1440.053682551496	587.205872145096	1017.032369230254	1494.202366431427	406.326569448352	1039.483019182482	948.071313546887	571.973400172109	1065.391239238365	957.929937162128	296.556521320136	1102.817015606037	761.352772087552	553.469286473267	1042.626400851108	645.352494245151	621.023967213155	1131.468307834085	599.995855845297	545.971196224471	1157.596386507916	520.443792178609	562.817022311356	1075.083816210451	732.573849909175	334.589226325628	976.686838449644	631.221830440045	256.203470792412	1036.124252637977	542.115408090277	328.852047132288	1023.585144464420	473.271770636593	335.524123737937	989.503264666970	405.611416253239	323.187662956642	890.695380873467	303.965759072230	264.618949571639	918.990849491438	186.492809439833	336.270101357459	1142.389354981484	433.682178353354	573.861014656299	1088.229437471503	319.949226302310	636.902762484724	1160.230654836759	234.027382805517	587.792665848216	1071.747343383885	44.107009485081	559.881225492649	1231.468441846307	122.174575165053	601.110088078205	1155.930337106369	43.982403395441	634.085338486768	1357.882590983510	89.106032078825	627.736005520775	775.438701672509	39.092157417455	368.121691862066	851.158767167496	35.411232468016	289.606887476777	934.404430924449	95.309352440386	320.853985722439	1063.470198862107	40.369311082947	293.396470185404	1058.398708598042	1089.221390382769	112.198524090490	1277.115865567808	977.297858093013	193.584030144211	941.352421275869	1097.857977789518	700.569145117919	1004.881299922256	845.660959761714	728.283557449079	
21	19.014285714286	830.278874301078	1008.503707692893	422.976692794203	1056.421232249301	1428.685190502609	256.372357822824	1129.469598710465	1360.757173744318	432.439335495017	1021.723383136439	1438.813526521123	590.189324978824	1016.570735462371	1493.264855737441	409.402800705731	1040.893301877892	946.634105943105	573.883061845901	1066.613221938907	957.046115456529	298.403422210157	1102.861782371103	758.490658911255	555.622879791696	1040.179203339124	642.519417452939	621.372513584325	1129.288896614064	597.186318593479	546.863461506938	1153.955387497990	517.721991981658	562.433347600917	1075.249574970013	731.188637147164	335.858179316228	976.019914580926	630.314608674008	257.563248596521	1035.158719490214	540.729389310063	329.810381056836	1022.302563831774	471.693875769900	336.296374787786	987.300666500773	404.392784142666	323.950844826650	887.193129339881	303.920337665966	265.255084286998	914.380775140266	185.914178861582	336.485179185400	1138.872555890245	430.576592952883	573.209771785620	1084.022295163110	316.786965652694	635.177019287600	1155.979582739272	231.053511416283	585.953156026920	1067.174161106249	42.470605165898	556.745419238633	1226.885969501504	119.241504905498	599.107691209079	1150.509512314314	42.340121597918	631.730540361027	1352.661942311667	85.277504027382	626.739382850816	769.876201945830	39.018515635264	368.130478477452	845.619797678576	35.341521109935	289.654054392711	928.869509654761	95.250077326276	320.890191474701	1057.951770175823	40.274767692859	293.342649914537	1059.250712990782	1088.252495203394	116.011971528174	1278.261067359391	978.052587136286	198.822061729500	944.231738299077	1095.671200311801	703.046644344918	1012.149786955213	844.314191449096	728.773852741711	
